<svg width="172" height="266" viewBox="0 0 172 266" fill="none" xmlns="http://www.w3.org/2000/svg">
<rect x="13.5" y="0.5" width="158" height="37" rx="5.5" fill="#F6F6F6"/>
<rect x="13.5" y="0.5" width="158" height="37" rx="5.5" stroke="#E3E3E3"/>
<path d="M33.8409 25.1591C33.1742 25.1591 32.5739 25.0265 32.0398 24.7614C31.5057 24.4962 31.0777 24.1326 30.7557 23.6705C30.4337 23.2083 30.2576 22.6818 30.2273 22.0909H31.5909C31.6439 22.6174 31.8826 23.053 32.3068 23.3977C32.7348 23.7386 33.2462 23.9091 33.8409 23.9091C34.3182 23.9091 34.7424 23.7973 35.1136 23.5739C35.4886 23.3504 35.7822 23.0436 35.9943 22.6534C36.2102 22.2595 36.3182 21.8144 36.3182 21.3182C36.3182 20.8106 36.2064 20.358 35.983 19.9602C35.7633 19.5587 35.4602 19.2424 35.0739 19.0114C34.6875 18.7803 34.2462 18.6629 33.75 18.6591C33.3939 18.6553 33.0284 18.7102 32.6534 18.8239C32.2784 18.9337 31.9697 19.0758 31.7273 19.25L30.4091 19.0909L31.1136 13.3636H37.1591V14.6136H32.2955L31.8864 18.0455H31.9545C32.1932 17.8561 32.4924 17.6989 32.8523 17.5739C33.2121 17.4489 33.5871 17.3864 33.9773 17.3864C34.6894 17.3864 35.3239 17.5568 35.8807 17.8977C36.4413 18.2348 36.8807 18.697 37.1989 19.2841C37.5208 19.8712 37.6818 20.5417 37.6818 21.2955C37.6818 22.0379 37.5152 22.7008 37.1818 23.2841C36.8523 23.8636 36.3977 24.322 35.8182 24.6591C35.2386 24.9924 34.5795 25.1591 33.8409 25.1591ZM43.4144 25.1591C42.5583 25.1591 41.8291 24.9261 41.2269 24.4602C40.6246 23.9905 40.1644 23.3106 39.8462 22.4205C39.528 21.5265 39.3689 20.447 39.3689 19.1818C39.3689 17.9242 39.528 16.8504 39.8462 15.9602C40.1682 15.0663 40.6303 14.3845 41.2326 13.9148C41.8386 13.4413 42.5659 13.2045 43.4144 13.2045C44.2629 13.2045 44.9882 13.4413 45.5905 13.9148C46.1966 14.3845 46.6587 15.0663 46.9769 15.9602C47.2988 16.8504 47.4598 17.9242 47.4598 19.1818C47.4598 20.447 47.3007 21.5265 46.9826 22.4205C46.6644 23.3106 46.2041 23.9905 45.6019 24.4602C44.9996 24.9261 44.2704 25.1591 43.4144 25.1591ZM43.4144 23.9091C44.2629 23.9091 44.922 23.5 45.3916 22.6818C45.8613 21.8636 46.0962 20.697 46.0962 19.1818C46.0962 18.1742 45.9882 17.3163 45.7723 16.608C45.5602 15.8996 45.2534 15.3598 44.8519 14.9886C44.4541 14.6174 43.975 14.4318 43.4144 14.4318C42.5735 14.4318 41.9163 14.8466 41.4428 15.6761C40.9693 16.5019 40.7326 17.6705 40.7326 19.1818C40.7326 20.1894 40.8386 21.0455 41.0507 21.75C41.2629 22.4545 41.5678 22.9905 41.9655 23.358C42.367 23.7254 42.85 23.9091 43.4144 23.9091ZM54.7516 21.8182L54.7289 20.1591H55.0016L58.8198 16.2727H60.4789L56.4107 20.3864H56.2971L54.7516 21.8182ZM53.5016 25V13.3636H54.8426V25H53.5016ZM59.0471 25L55.638 20.6818L56.5926 19.75L60.7516 25H59.0471ZM65.0481 28.4545C64.4004 28.4545 63.8436 28.3712 63.3777 28.2045C62.9118 28.0417 62.5235 27.8258 62.2129 27.5568C61.9061 27.2917 61.6618 27.0076 61.4799 26.7045L62.5481 25.9545C62.6693 26.1136 62.8227 26.2955 63.0084 26.5C63.194 26.7083 63.4477 26.8883 63.7697 27.0398C64.0955 27.1951 64.5216 27.2727 65.0481 27.2727C65.7527 27.2727 66.3341 27.1023 66.7924 26.7614C67.2508 26.4205 67.4799 25.8864 67.4799 25.1591V23.3864H67.3663C67.2678 23.5455 67.1277 23.7424 66.9459 23.9773C66.7678 24.2083 66.5102 24.4148 66.1731 24.5966C65.8398 24.7746 65.389 24.8636 64.8209 24.8636C64.1163 24.8636 63.4837 24.697 62.9231 24.3636C62.3663 24.0303 61.925 23.5455 61.5993 22.9091C61.2773 22.2727 61.1163 21.5 61.1163 20.5909C61.1163 19.697 61.2735 18.9186 61.5879 18.2557C61.9023 17.589 62.3398 17.0739 62.9004 16.7102C63.461 16.3428 64.1087 16.1591 64.8436 16.1591C65.4118 16.1591 65.8625 16.2538 66.1959 16.4432C66.533 16.6288 66.7905 16.8409 66.9686 17.0795C67.1504 17.3144 67.2905 17.5076 67.389 17.6591H67.5254V16.2727H68.8209V25.25C68.8209 26 68.6504 26.6098 68.3095 27.0795C67.9724 27.553 67.5178 27.8996 66.9459 28.1193C66.3777 28.3428 65.7451 28.4545 65.0481 28.4545ZM65.0027 23.6591C65.5405 23.6591 65.9951 23.536 66.3663 23.2898C66.7375 23.0436 67.0197 22.6894 67.2129 22.2273C67.4061 21.7652 67.5027 21.2121 67.5027 20.5682C67.5027 19.9394 67.408 19.3845 67.2186 18.9034C67.0292 18.4223 66.7489 18.0455 66.3777 17.7727C66.0065 17.5 65.5481 17.3636 65.0027 17.3636C64.4345 17.3636 63.961 17.5076 63.5822 17.7955C63.2072 18.0833 62.925 18.4697 62.7356 18.9545C62.55 19.4394 62.4572 19.9773 62.4572 20.5682C62.4572 21.1742 62.5519 21.7102 62.7413 22.1761C62.9345 22.6383 63.2186 23.0019 63.5936 23.267C63.9724 23.5284 64.4421 23.6591 65.0027 23.6591ZM84.6809 17H83.2718C83.1884 16.5947 83.0426 16.2386 82.8343 15.9318C82.6297 15.625 82.3797 15.3674 82.0843 15.1591C81.7926 14.947 81.4687 14.7879 81.1127 14.6818C80.7566 14.5758 80.3854 14.5227 79.999 14.5227C79.2945 14.5227 78.6562 14.7008 78.0843 15.0568C77.5161 15.4129 77.0634 15.9375 76.7263 16.6307C76.393 17.3239 76.2263 18.1742 76.2263 19.1818C76.2263 20.1894 76.393 21.0398 76.7263 21.733C77.0634 22.4261 77.5161 22.9508 78.0843 23.3068C78.6562 23.6629 79.2945 23.8409 79.999 23.8409C80.3854 23.8409 80.7566 23.7879 81.1127 23.6818C81.4687 23.5758 81.7926 23.4186 82.0843 23.2102C82.3797 22.9981 82.6297 22.7386 82.8343 22.4318C83.0426 22.1212 83.1884 21.7652 83.2718 21.3636H84.6809C84.5748 21.9583 84.3816 22.4905 84.1013 22.9602C83.821 23.4299 83.4725 23.8295 83.0559 24.1591C82.6392 24.4848 82.1714 24.733 81.6524 24.9034C81.1373 25.0739 80.5862 25.1591 79.999 25.1591C79.0066 25.1591 78.124 24.9167 77.3513 24.4318C76.5786 23.947 75.9706 23.2576 75.5274 22.3636C75.0843 21.4697 74.8627 20.4091 74.8627 19.1818C74.8627 17.9545 75.0843 16.8939 75.5274 16C75.9706 15.1061 76.5786 14.4167 77.3513 13.9318C78.124 13.447 79.0066 13.2045 79.999 13.2045C80.5862 13.2045 81.1373 13.2898 81.6524 13.4602C82.1714 13.6307 82.6392 13.8807 83.0559 14.2102C83.4725 14.536 83.821 14.9337 84.1013 15.4034C84.3816 15.8693 84.5748 16.4015 84.6809 17ZM96.456 19.1818C96.456 20.4091 96.2344 21.4697 95.7912 22.3636C95.3481 23.2576 94.7401 23.947 93.9674 24.4318C93.1947 24.9167 92.3121 25.1591 91.3197 25.1591C90.3272 25.1591 89.4447 24.9167 88.6719 24.4318C87.8992 23.947 87.2912 23.2576 86.8481 22.3636C86.4049 21.4697 86.1833 20.4091 86.1833 19.1818C86.1833 17.9545 86.4049 16.8939 86.8481 16C87.2912 15.1061 87.8992 14.4167 88.6719 13.9318C89.4447 13.447 90.3272 13.2045 91.3197 13.2045C92.3121 13.2045 93.1947 13.447 93.9674 13.9318C94.7401 14.4167 95.3481 15.1061 95.7912 16C96.2344 16.8939 96.456 17.9545 96.456 19.1818ZM95.0924 19.1818C95.0924 18.1742 94.9238 17.3239 94.5867 16.6307C94.2534 15.9375 93.8007 15.4129 93.2287 15.0568C92.6606 14.7008 92.0242 14.5227 91.3197 14.5227C90.6151 14.5227 89.9769 14.7008 89.4049 15.0568C88.8367 15.4129 88.3841 15.9375 88.0469 16.6307C87.7136 17.3239 87.5469 18.1742 87.5469 19.1818C87.5469 20.1894 87.7136 21.0398 88.0469 21.733C88.3841 22.4261 88.8367 22.9508 89.4049 23.3068C89.9769 23.6629 90.6151 23.8409 91.3197 23.8409C92.0242 23.8409 92.6606 23.6629 93.2287 23.3068C93.8007 22.9508 94.2534 22.4261 94.5867 21.733C94.9238 21.0398 95.0924 20.1894 95.0924 19.1818ZM98.3008 25V23.9773L102.142 19.7727C102.592 19.2803 102.964 18.8523 103.255 18.4886C103.547 18.1212 103.763 17.7765 103.903 17.4545C104.047 17.1288 104.119 16.7879 104.119 16.4318C104.119 16.0227 104.02 15.6686 103.824 15.3693C103.63 15.0701 103.365 14.839 103.028 14.6761C102.691 14.5133 102.312 14.4318 101.892 14.4318C101.445 14.4318 101.055 14.5246 100.721 14.7102C100.392 14.892 100.136 15.1477 99.9542 15.4773C99.7762 15.8068 99.6872 16.1932 99.6872 16.6364H98.3463C98.3463 15.9545 98.5034 15.3561 98.8178 14.8409C99.1322 14.3258 99.5603 13.9242 100.102 13.6364C100.647 13.3485 101.259 13.2045 101.937 13.2045C102.619 13.2045 103.223 13.3485 103.75 13.6364C104.276 13.9242 104.689 14.3125 104.988 14.8011C105.288 15.2898 105.437 15.8333 105.437 16.4318C105.437 16.8598 105.36 17.2784 105.204 17.6875C105.053 18.0928 104.788 18.5455 104.409 19.0455C104.034 19.5417 103.513 20.1477 102.846 20.8636L100.233 23.6591V23.75H105.642V25H98.3008ZM111.805 12.8182L108.055 26.75H106.827L110.577 12.8182H111.805ZM113.074 25V16.2727H114.37V17.6364H114.483C114.665 17.1705 114.959 16.8087 115.364 16.5511C115.769 16.2898 116.256 16.1591 116.824 16.1591C117.4 16.1591 117.879 16.2898 118.262 16.5511C118.648 16.8087 118.949 17.1705 119.165 17.6364H119.256C119.479 17.1856 119.815 16.8277 120.262 16.5625C120.709 16.2936 121.245 16.1591 121.87 16.1591C122.65 16.1591 123.288 16.4034 123.784 16.892C124.281 17.3769 124.529 18.1326 124.529 19.1591V25H123.188V19.1591C123.188 18.5152 123.012 18.0549 122.659 17.7784C122.307 17.5019 121.892 17.3636 121.415 17.3636C120.801 17.3636 120.326 17.5492 119.989 17.9205C119.652 18.2879 119.483 18.7538 119.483 19.3182V25H118.12V19.0227C118.12 18.5265 117.959 18.1269 117.637 17.8239C117.315 17.517 116.9 17.3636 116.392 17.3636C116.044 17.3636 115.718 17.4564 115.415 17.642C115.116 17.8277 114.873 18.0852 114.688 18.4148C114.506 18.7405 114.415 19.1174 114.415 19.5455V25H113.074ZM126.229 19.1818V18.2955L128.888 15.9318C129.153 15.697 129.374 15.4867 129.552 15.3011C129.73 15.1155 129.865 14.9356 129.956 14.7614C130.047 14.5871 130.092 14.4015 130.092 14.2045C130.092 13.8636 129.962 13.5928 129.7 13.392C129.439 13.1913 129.115 13.0909 128.729 13.0909C128.319 13.0909 127.99 13.2008 127.74 13.4205C127.49 13.6364 127.365 13.9205 127.365 14.2727H126.183C126.183 13.625 126.424 13.1042 126.905 12.7102C127.386 12.3125 128.001 12.1136 128.751 12.1136C129.251 12.1136 129.691 12.2045 130.069 12.3864C130.448 12.5644 130.744 12.8106 130.956 13.125C131.168 13.4356 131.274 13.7879 131.274 14.1818C131.274 14.4924 131.212 14.7803 131.087 15.0455C130.962 15.3106 130.766 15.5852 130.501 15.8693C130.236 16.1534 129.895 16.4773 129.479 16.8409L128.001 18.1364V18.1818H131.479V19.1818H126.229ZM137.188 12.8182L133.438 26.75H132.211L135.961 12.8182H137.188ZM141.026 25.2045C140.473 25.2045 139.971 25.1004 139.52 24.892C139.07 24.6799 138.712 24.375 138.447 23.9773C138.181 23.5758 138.049 23.0909 138.049 22.5227C138.049 22.0227 138.147 21.6174 138.344 21.3068C138.541 20.9924 138.804 20.7462 139.134 20.5682C139.464 20.3902 139.827 20.2576 140.225 20.1705C140.626 20.0795 141.03 20.0076 141.435 19.9545C141.965 19.8864 142.395 19.8352 142.725 19.8011C143.058 19.7633 143.301 19.7008 143.452 19.6136C143.608 19.5265 143.685 19.375 143.685 19.1591V19.1136C143.685 18.553 143.532 18.1174 143.225 17.8068C142.922 17.4962 142.462 17.3409 141.844 17.3409C141.204 17.3409 140.702 17.4811 140.339 17.7614C139.975 18.0417 139.719 18.3409 139.572 18.6591L138.299 18.2045C138.526 17.6742 138.829 17.2614 139.208 16.9659C139.59 16.6667 140.007 16.4583 140.458 16.3409C140.912 16.2197 141.359 16.1591 141.799 16.1591C142.079 16.1591 142.401 16.1932 142.765 16.2614C143.132 16.3258 143.486 16.4602 143.827 16.6648C144.172 16.8693 144.458 17.178 144.685 17.5909C144.912 18.0038 145.026 18.5568 145.026 19.25V25H143.685V23.8182H143.617C143.526 24.0076 143.375 24.2102 143.162 24.4261C142.95 24.642 142.668 24.8258 142.316 24.9773C141.964 25.1288 141.534 25.2045 141.026 25.2045ZM141.231 24C141.761 24 142.208 23.8958 142.572 23.6875C142.939 23.4792 143.215 23.2102 143.401 22.8807C143.59 22.5511 143.685 22.2045 143.685 21.8409V20.6136C143.628 20.6818 143.503 20.7443 143.31 20.8011C143.121 20.8542 142.901 20.9015 142.651 20.9432C142.405 20.9811 142.164 21.0152 141.929 21.0455C141.698 21.072 141.511 21.0947 141.367 21.1136C141.019 21.1591 140.693 21.233 140.39 21.3352C140.09 21.4337 139.848 21.5833 139.662 21.7841C139.481 21.9811 139.39 22.25 139.39 22.5909C139.39 23.0568 139.562 23.4091 139.907 23.6477C140.255 23.8826 140.697 24 141.231 24ZM148.494 19.75V25H147.154V16.2727H148.449V17.6364H148.563C148.767 17.1932 149.078 16.8371 149.494 16.5682C149.911 16.2955 150.449 16.1591 151.108 16.1591C151.699 16.1591 152.216 16.2803 152.659 16.5227C153.102 16.7614 153.447 17.125 153.693 17.6136C153.94 18.0985 154.063 18.7121 154.063 19.4545V25H152.722V19.5455C152.722 18.8598 152.544 18.3258 152.188 17.9432C151.832 17.5568 151.343 17.3636 150.722 17.3636C150.294 17.3636 149.911 17.4564 149.574 17.642C149.241 17.8277 148.977 18.0985 148.784 18.4545C148.591 18.8106 148.494 19.2424 148.494 19.75Z" fill="#113B3C"/>
<path d="M13 58C13 55.7909 14.7909 54 17 54H41C47.6274 54 53 59.3726 53 66C53 72.6274 47.6274 78 41 78H17C14.7909 78 13 76.2091 13 74V58Z" fill="#A4DBF9"/>
<path d="M26.55 67.724L25.494 64.838C25.442 64.71 25.388 64.558 25.332 64.382C25.276 64.206 25.22 64.016 25.164 63.812C25.112 64.016 25.058 64.208 25.002 64.388C24.946 64.564 24.892 64.718 24.84 64.85L23.79 67.724H26.55ZM29.4 71H28.152C28.012 71 27.898 70.966 27.81 70.898C27.722 70.826 27.656 70.738 27.612 70.634L26.964 68.864H23.37L22.722 70.634C22.69 70.726 22.628 70.81 22.536 70.886C22.444 70.962 22.33 71 22.194 71H20.934L24.348 62.324H25.992L29.4 71Z" fill="white"/>
<path d="M13 88C13 85.7909 14.7909 84 17 84H45C51.6274 84 57 89.3726 57 96C57 102.627 51.6274 108 45 108H17C14.7909 108 13 106.209 13 104V88Z" fill="#8DB4D5"/>
<path d="M25.212 99.74C25.512 99.74 25.764 99.704 25.968 99.632C26.172 99.56 26.334 99.464 26.454 99.344C26.578 99.224 26.666 99.084 26.718 98.924C26.774 98.764 26.802 98.594 26.802 98.414C26.802 98.226 26.772 98.058 26.712 97.91C26.652 97.758 26.558 97.63 26.43 97.526C26.302 97.418 26.136 97.336 25.932 97.28C25.732 97.224 25.49 97.196 25.206 97.196H23.58V99.74H25.212ZM23.58 93.572V96.08H24.864C25.416 96.08 25.832 95.98 26.112 95.78C26.396 95.58 26.538 95.262 26.538 94.826C26.538 94.374 26.41 94.052 26.154 93.86C25.898 93.668 25.498 93.572 24.954 93.572H23.58ZM24.954 92.324C25.522 92.324 26.008 92.378 26.412 92.486C26.816 92.594 27.146 92.748 27.402 92.948C27.662 93.148 27.852 93.39 27.972 93.674C28.092 93.958 28.152 94.278 28.152 94.634C28.152 94.838 28.122 95.034 28.062 95.222C28.002 95.406 27.908 95.58 27.78 95.744C27.656 95.904 27.496 96.05 27.3 96.182C27.108 96.314 26.878 96.426 26.61 96.518C27.802 96.786 28.398 97.43 28.398 98.45C28.398 98.818 28.328 99.158 28.188 99.47C28.048 99.782 27.844 100.052 27.576 100.28C27.308 100.504 26.978 100.68 26.586 100.808C26.194 100.936 25.746 101 25.242 101H21.966V92.324H24.954Z" fill="white"/>
<path d="M13 118C13 115.791 14.7909 114 17 114H49C55.6274 114 61 119.373 61 126C61 132.627 55.6274 138 49 138H17C14.7909 138 13 136.209 13 134V118Z" fill="#7592B2"/>
<path d="M27.924 128.954C28.012 128.954 28.09 128.988 28.158 129.056L28.794 129.746C28.442 130.182 28.008 130.516 27.492 130.748C26.98 130.98 26.364 131.096 25.644 131.096C25 131.096 24.42 130.986 23.904 130.766C23.392 130.546 22.954 130.24 22.59 129.848C22.226 129.456 21.946 128.988 21.75 128.444C21.558 127.9 21.462 127.306 21.462 126.662C21.462 126.01 21.566 125.414 21.774 124.874C21.982 124.33 22.274 123.862 22.65 123.47C23.03 123.078 23.482 122.774 24.006 122.558C24.53 122.338 25.11 122.228 25.746 122.228C26.378 122.228 26.938 122.332 27.426 122.54C27.918 122.748 28.336 123.02 28.68 123.356L28.14 124.106C28.108 124.154 28.066 124.196 28.014 124.232C27.966 124.268 27.898 124.286 27.81 124.286C27.75 124.286 27.688 124.27 27.624 124.238C27.56 124.202 27.49 124.16 27.414 124.112C27.338 124.06 27.25 124.004 27.15 123.944C27.05 123.884 26.934 123.83 26.802 123.782C26.67 123.73 26.516 123.688 26.34 123.656C26.168 123.62 25.968 123.602 25.74 123.602C25.352 123.602 24.996 123.672 24.672 123.812C24.352 123.948 24.076 124.148 23.844 124.412C23.612 124.672 23.432 124.992 23.304 125.372C23.176 125.748 23.112 126.178 23.112 126.662C23.112 127.15 23.18 127.584 23.316 127.964C23.456 128.344 23.644 128.664 23.88 128.924C24.116 129.184 24.394 129.384 24.714 129.524C25.034 129.66 25.378 129.728 25.746 129.728C25.966 129.728 26.164 129.716 26.34 129.692C26.52 129.668 26.684 129.63 26.832 129.578C26.984 129.526 27.126 129.46 27.258 129.38C27.394 129.296 27.528 129.194 27.66 129.074C27.7 129.038 27.742 129.01 27.786 128.99C27.83 128.966 27.876 128.954 27.924 128.954Z" fill="white"/>
<path d="M14 148.667C14 146.642 15.6416 145 17.6667 145H58C66.2843 145 73 151.716 73 160C73 168.284 66.2843 175 58 175H17.6667C15.6416 175 14 173.358 14 171.333V148.667Z" fill="#4B688A"/>
<path d="M14 148.667C14 146.642 15.6416 145 17.6667 145H58C66.2843 145 73 151.716 73 160C73 168.284 66.2843 175 58 175H17.6667C15.6416 175 14 173.358 14 171.333V148.667Z" stroke="#18152C" stroke-width="2"/>
<path d="M32.344 159.939C32.344 160.681 32.2203 161.362 31.973 161.983C31.7257 162.604 31.378 163.138 30.93 163.586C30.482 164.034 29.943 164.382 29.313 164.629C28.683 164.876 27.9853 165 27.22 165H23.356V154.878H27.22C27.9853 154.878 28.683 155.004 29.313 155.256C29.943 155.503 30.482 155.851 30.93 156.299C31.378 156.742 31.7257 157.274 31.973 157.895C32.2203 158.516 32.344 159.197 32.344 159.939ZM30.419 159.939C30.419 159.384 30.3443 158.887 30.195 158.448C30.0457 158.005 29.8333 157.631 29.558 157.328C29.2827 157.02 28.9467 156.784 28.55 156.621C28.158 156.458 27.7147 156.376 27.22 156.376H25.253V163.502H27.22C27.7147 163.502 28.158 163.42 28.55 163.257C28.9467 163.094 29.2827 162.86 29.558 162.557C29.8333 162.249 30.0457 161.876 30.195 161.437C30.3443 160.994 30.419 160.494 30.419 159.939Z" fill="white"/>
<g filter="url(#filter0_dd_350_1652)">
<path d="M13 185.429C13 183.535 14.535 182 16.4286 182H55.8572C62.4846 182 67.8571 187.373 67.8571 194C67.8571 200.627 62.4846 206 55.8571 206H16.4286C14.535 206 13 204.465 13 202.571V185.429Z" fill="#4D506F"/>
<path d="M26.2054 190.324V191.608H22.3594V194.014H25.3894V195.256H22.3594V197.71H26.2054V199H20.7334V190.324H26.2054Z" fill="white"/>
</g>
<path d="M13 216C13 213.791 14.7909 212 17 212H61C67.6274 212 73 217.373 73 224C73 230.627 67.6274 236 61 236H17C14.7909 236 13 234.209 13 232V216Z" fill="#393653"/>
<path d="M23.586 221.608V224.176H26.838V225.466H23.586V229H21.966V220.324H27.438V221.608H23.586Z" fill="white"/>
<path d="M13 246C13 243.791 14.7909 242 17 242H65C71.6274 242 77 247.373 77 254C77 260.627 71.6274 266 65 266H17C14.7909 266 13 264.209 13 262V246Z" fill="#281A34"/>
<path d="M25.86 257.812C26.224 257.812 26.54 257.78 26.808 257.716C27.08 257.648 27.338 257.556 27.582 257.44V255.862H26.496C26.392 255.862 26.31 255.834 26.25 255.778C26.19 255.718 26.16 255.646 26.16 255.562V254.65H29.046V258.16C28.826 258.32 28.596 258.46 28.356 258.58C28.12 258.696 27.866 258.792 27.594 258.868C27.326 258.944 27.038 259 26.73 259.036C26.422 259.076 26.09 259.096 25.734 259.096C25.102 259.096 24.52 258.986 23.988 258.766C23.456 258.546 22.996 258.24 22.608 257.848C22.22 257.456 21.916 256.988 21.696 256.444C21.48 255.9 21.372 255.306 21.372 254.662C21.372 254.01 21.478 253.412 21.69 252.868C21.902 252.324 22.202 251.856 22.59 251.464C22.982 251.072 23.456 250.768 24.012 250.552C24.568 250.336 25.192 250.228 25.884 250.228C26.592 250.228 27.204 250.334 27.72 250.546C28.24 250.754 28.68 251.026 29.04 251.362L28.572 252.094C28.48 252.242 28.358 252.316 28.206 252.316C28.11 252.316 28.012 252.284 27.912 252.22C27.784 252.144 27.652 252.068 27.516 251.992C27.384 251.916 27.236 251.85 27.072 251.794C26.912 251.738 26.73 251.692 26.526 251.656C26.326 251.62 26.094 251.602 25.83 251.602C25.402 251.602 25.014 251.674 24.666 251.818C24.322 251.962 24.028 252.168 23.784 252.436C23.54 252.704 23.352 253.026 23.22 253.402C23.088 253.778 23.022 254.198 23.022 254.662C23.022 255.162 23.092 255.608 23.232 256C23.372 256.388 23.568 256.716 23.82 256.984C24.072 257.252 24.372 257.458 24.72 257.602C25.068 257.742 25.448 257.812 25.86 257.812Z" fill="white"/>
<defs>
<filter id="filter0_dd_350_1652" x="0.142857" y="173.429" width="80.5717" height="49.7143" filterUnits="userSpaceOnUse" color-interpolation-filters="sRGB">
<feFlood flood-opacity="0" result="BackgroundImageFix"/>
<feColorMatrix in="SourceAlpha" type="matrix" values="0 0 0 0 0 0 0 0 0 0 0 0 0 0 0 0 0 0 127 0" result="hardAlpha"/>
<feOffset dy="4.28571"/>
<feGaussianBlur stdDeviation="6.42857"/>
<feColorMatrix type="matrix" values="0 0 0 0 0.34902 0 0 0 0 0.439216 0 0 0 0 0.568627 0 0 0 0.1 0"/>
<feBlend mode="normal" in2="BackgroundImageFix" result="effect1_dropShadow_350_1652"/>
<feColorMatrix in="SourceAlpha" type="matrix" values="0 0 0 0 0 0 0 0 0 0 0 0 0 0 0 0 0 0 127 0" result="hardAlpha"/>
<feOffset dy="1.71429"/>
<feGaussianBlur stdDeviation="1.71429"/>
<feColorMatrix type="matrix" values="0 0 0 0 0.34902 0 0 0 0 0.439216 0 0 0 0 0.568627 0 0 0 0.15 0"/>
<feBlend mode="normal" in2="effect1_dropShadow_350_1652" result="effect2_dropShadow_350_1652"/>
<feBlend mode="normal" in="SourceGraphic" in2="effect2_dropShadow_350_1652" result="shape"/>
</filter>
</defs>
</svg>
