<svg width="270" height="266" viewBox="0 0 270 266" fill="none" xmlns="http://www.w3.org/2000/svg">
<rect x="2.5" y="0.5" width="143" height="37" rx="5.5" fill="#F6F6F6"/>
<rect x="2.5" y="0.5" width="143" height="37" rx="5.5" stroke="#E3E3E3"/>
<path d="M19.2045 25V23.9773L23.0455 19.7727C23.4962 19.2803 23.8674 18.8523 24.1591 18.4886C24.4508 18.1212 24.6667 17.7765 24.8068 17.4545C24.9508 17.1288 25.0227 16.7879 25.0227 16.4318C25.0227 16.0227 24.9242 15.6686 24.7273 15.3693C24.5341 15.0701 24.2689 14.839 23.9318 14.6761C23.5947 14.5133 23.2159 14.4318 22.7955 14.4318C22.3485 14.4318 21.9583 14.5246 21.625 14.7102C21.2955 14.892 21.0398 15.1477 20.858 15.4773C20.6799 15.8068 20.5909 16.1932 20.5909 16.6364H19.25C19.25 15.9545 19.4072 15.3561 19.7216 14.8409C20.036 14.3258 20.464 13.9242 21.0057 13.6364C21.5511 13.3485 22.1629 13.2045 22.8409 13.2045C23.5227 13.2045 24.1269 13.3485 24.6534 13.6364C25.1799 13.9242 25.5928 14.3125 25.892 14.8011C26.1913 15.2898 26.3409 15.8333 26.3409 16.4318C26.3409 16.8598 26.2633 17.2784 26.108 17.6875C25.9564 18.0928 25.6913 18.5455 25.3125 19.0455C24.9375 19.5417 24.4167 20.1477 23.75 20.8636L21.1364 23.6591V23.75H26.5455V25H19.2045ZM32.663 13.3636V25H31.2539V14.8409H31.1857L28.3448 16.7273V15.2955L31.2539 13.3636H32.663ZM39.5532 25.1591C39.0759 25.1515 38.5986 25.0606 38.1214 24.8864C37.6441 24.7121 37.2085 24.4186 36.8145 24.0057C36.4206 23.589 36.1043 23.0265 35.8657 22.3182C35.627 21.6061 35.5077 20.7121 35.5077 19.6364C35.5077 18.6061 35.6043 17.6932 35.7975 16.8977C35.9907 16.0985 36.271 15.4261 36.6384 14.8807C37.0058 14.3314 37.449 13.9148 37.968 13.6307C38.4907 13.3466 39.0797 13.2045 39.735 13.2045C40.3865 13.2045 40.9661 13.3352 41.4736 13.5966C41.985 13.8542 42.4017 14.214 42.7236 14.6761C43.0456 15.1383 43.2539 15.6705 43.3486 16.2727H41.9623C41.8335 15.75 41.5835 15.3163 41.2123 14.9716C40.8411 14.6269 40.3486 14.4545 39.735 14.4545C38.8335 14.4545 38.1233 14.8466 37.6043 15.6307C37.0892 16.4148 36.8297 17.5152 36.8259 18.9318H36.9168C37.1289 18.6098 37.3808 18.3352 37.6725 18.108C37.968 17.8769 38.2937 17.6989 38.6498 17.5739C39.0058 17.4489 39.3827 17.3864 39.7805 17.3864C40.4471 17.3864 41.057 17.553 41.61 17.8864C42.163 18.2159 42.6062 18.6723 42.9395 19.2557C43.2729 19.8352 43.4395 20.5 43.4395 21.25C43.4395 21.9697 43.2786 22.6288 42.9566 23.2273C42.6346 23.822 42.182 24.2955 41.5986 24.6477C41.0191 24.9962 40.3373 25.1667 39.5532 25.1591ZM39.5532 23.9091C40.0305 23.9091 40.4585 23.7898 40.8373 23.5511C41.2198 23.3125 41.521 22.9924 41.7407 22.5909C41.9642 22.1894 42.0759 21.7424 42.0759 21.25C42.0759 20.7689 41.968 20.3314 41.752 19.9375C41.5399 19.5398 41.2464 19.2235 40.8714 18.9886C40.5002 18.7538 40.0759 18.6364 39.5986 18.6364C39.2388 18.6364 38.9036 18.7083 38.593 18.8523C38.2823 18.9924 38.0096 19.1856 37.7748 19.4318C37.5437 19.678 37.3619 19.9602 37.2293 20.2784C37.0967 20.5928 37.0305 20.9242 37.0305 21.2727C37.0305 21.7348 37.1384 22.1667 37.3543 22.5682C37.574 22.9697 37.8733 23.2936 38.252 23.5398C38.6346 23.786 39.0683 23.9091 39.5532 23.9091ZM50.8066 21.8182L50.7839 20.1591H51.0566L54.8748 16.2727H56.5339L52.4657 20.3864H52.3521L50.8066 21.8182ZM49.5566 25V13.3636H50.8976V25H49.5566ZM55.1021 25L51.693 20.6818L52.6476 19.75L56.8066 25H55.1021ZM60.2352 25L57.0534 13.3636H58.4852L60.917 22.8409H61.0307L63.508 13.3636H65.0989L67.5761 22.8409H67.6898L70.1216 13.3636H71.5534L68.3716 25H66.917L64.3489 15.7273H64.258L61.6898 25H60.2352ZM74.1482 19.75V25H72.8073V13.3636H74.1482V17.6364H74.2618C74.4664 17.1856 74.7732 16.8277 75.1823 16.5625C75.5952 16.2936 76.1444 16.1591 76.83 16.1591C77.4247 16.1591 77.9455 16.2784 78.3925 16.517C78.8395 16.7519 79.1861 17.1136 79.4323 17.6023C79.6823 18.0871 79.8073 18.7045 79.8073 19.4545V25H78.4664V19.5455C78.4664 18.8523 78.2864 18.3163 77.9266 17.9375C77.5705 17.5549 77.0762 17.3636 76.4436 17.3636C76.0042 17.3636 75.6103 17.4564 75.2618 17.642C74.9171 17.8277 74.6444 18.0985 74.4436 18.4545C74.2467 18.8106 74.1482 19.2424 74.1482 19.75ZM86.054 12.8182L82.304 26.75H81.0768L84.8268 12.8182H86.054ZM87.3235 25V16.2727H88.619V17.6364H88.7326C88.9144 17.1705 89.208 16.8087 89.6133 16.5511C90.0186 16.2898 90.5053 16.1591 91.0735 16.1591C91.6493 16.1591 92.1284 16.2898 92.511 16.5511C92.8974 16.8087 93.1985 17.1705 93.4144 17.6364H93.5053C93.7288 17.1856 94.0641 16.8277 94.511 16.5625C94.958 16.2936 95.494 16.1591 96.119 16.1591C96.8993 16.1591 97.5375 16.4034 98.0338 16.892C98.53 17.3769 98.7781 18.1326 98.7781 19.1591V25H97.4372V19.1591C97.4372 18.5152 97.261 18.0549 96.9088 17.7784C96.5565 17.5019 96.1417 17.3636 95.6644 17.3636C95.0508 17.3636 94.5754 17.5492 94.2383 17.9205C93.9012 18.2879 93.7326 18.7538 93.7326 19.3182V25H92.369V19.0227C92.369 18.5265 92.208 18.1269 91.886 17.8239C91.5641 17.517 91.1493 17.3636 90.6417 17.3636C90.2932 17.3636 89.9675 17.4564 89.6644 17.642C89.3652 17.8277 89.1228 18.0852 88.9372 18.4148C88.7553 18.7405 88.6644 19.1174 88.6644 19.5455V25H87.3235ZM100.478 19.1818V18.2955L103.137 15.9318C103.402 15.697 103.624 15.4867 103.802 15.3011C103.98 15.1155 104.114 14.9356 104.205 14.7614C104.296 14.5871 104.342 14.4015 104.342 14.2045C104.342 13.8636 104.211 13.5928 103.95 13.392C103.688 13.1913 103.364 13.0909 102.978 13.0909C102.569 13.0909 102.239 13.2008 101.989 13.4205C101.739 13.6364 101.614 13.9205 101.614 14.2727H100.433C100.433 13.625 100.673 13.1042 101.154 12.7102C101.635 12.3125 102.251 12.1136 103.001 12.1136C103.501 12.1136 103.94 12.2045 104.319 12.3864C104.698 12.5644 104.993 12.8106 105.205 13.125C105.417 13.4356 105.523 13.7879 105.523 14.1818C105.523 14.4924 105.461 14.7803 105.336 15.0455C105.211 15.3106 105.016 15.5852 104.751 15.8693C104.486 16.1534 104.145 16.4773 103.728 16.8409L102.251 18.1364V18.1818H105.728V19.1818H100.478ZM111.438 12.8182L107.688 26.75H106.461L110.211 12.8182H111.438ZM115.275 25.2045C114.722 25.2045 114.221 25.1004 113.77 24.892C113.319 24.6799 112.961 24.375 112.696 23.9773C112.431 23.5758 112.298 23.0909 112.298 22.5227C112.298 22.0227 112.397 21.6174 112.594 21.3068C112.791 20.9924 113.054 20.7462 113.383 20.5682C113.713 20.3902 114.077 20.2576 114.474 20.1705C114.876 20.0795 115.279 20.0076 115.685 19.9545C116.215 19.8864 116.645 19.8352 116.974 19.8011C117.308 19.7633 117.55 19.7008 117.702 19.6136C117.857 19.5265 117.935 19.375 117.935 19.1591V19.1136C117.935 18.553 117.781 18.1174 117.474 17.8068C117.171 17.4962 116.711 17.3409 116.094 17.3409C115.453 17.3409 114.952 17.4811 114.588 17.7614C114.224 18.0417 113.969 18.3409 113.821 18.6591L112.548 18.2045C112.775 17.6742 113.078 17.2614 113.457 16.9659C113.84 16.6667 114.257 16.4583 114.707 16.3409C115.162 16.2197 115.609 16.1591 116.048 16.1591C116.328 16.1591 116.65 16.1932 117.014 16.2614C117.382 16.3258 117.736 16.4602 118.077 16.6648C118.421 16.8693 118.707 17.178 118.935 17.5909C119.162 18.0038 119.275 18.5568 119.275 19.25V25H117.935V23.8182H117.866C117.775 24.0076 117.624 24.2102 117.412 24.4261C117.2 24.642 116.918 24.8258 116.565 24.9773C116.213 25.1288 115.783 25.2045 115.275 25.2045ZM115.48 24C116.01 24 116.457 23.8958 116.821 23.6875C117.188 23.4792 117.465 23.2102 117.65 22.8807C117.84 22.5511 117.935 22.2045 117.935 21.8409V20.6136C117.878 20.6818 117.753 20.7443 117.56 20.8011C117.37 20.8542 117.15 20.9015 116.9 20.9432C116.654 20.9811 116.414 21.0152 116.179 21.0455C115.948 21.072 115.76 21.0947 115.616 21.1136C115.268 21.1591 114.942 21.233 114.639 21.3352C114.34 21.4337 114.097 21.5833 113.912 21.7841C113.73 21.9811 113.639 22.25 113.639 22.5909C113.639 23.0568 113.811 23.4091 114.156 23.6477C114.505 23.8826 114.946 24 115.48 24ZM122.744 19.75V25H121.403V16.2727H122.698V17.6364H122.812C123.017 17.1932 123.327 16.8371 123.744 16.5682C124.16 16.2955 124.698 16.1591 125.357 16.1591C125.948 16.1591 126.465 16.2803 126.909 16.5227C127.352 16.7614 127.696 17.125 127.943 17.6136C128.189 18.0985 128.312 18.7121 128.312 19.4545V25H126.971V19.5455C126.971 18.8598 126.793 18.3258 126.437 17.9432C126.081 17.5568 125.592 17.3636 124.971 17.3636C124.543 17.3636 124.16 17.4564 123.823 17.642C123.49 17.8277 123.227 18.0985 123.034 18.4545C122.84 18.8106 122.744 19.2424 122.744 19.75Z" fill="#113B3C"/>
<path d="M165.388 160.216C165.388 161.064 165.247 161.843 164.964 162.552C164.681 163.261 164.284 163.872 163.772 164.384C163.26 164.896 162.644 165.293 161.924 165.576C161.204 165.859 160.404 166 159.524 166H155.116V154.432H159.524C160.404 154.432 161.204 154.576 161.924 154.864C162.644 155.147 163.26 155.544 163.772 156.056C164.284 156.563 164.681 157.171 164.964 157.88C165.247 158.589 165.388 159.368 165.388 160.216ZM163.18 160.216C163.18 159.581 163.095 159.013 162.924 158.512C162.759 158.005 162.516 157.579 162.196 157.232C161.881 156.88 161.497 156.611 161.044 156.424C160.596 156.237 160.089 156.144 159.524 156.144H157.276V164.288H159.524C160.089 164.288 160.596 164.195 161.044 164.008C161.497 163.821 161.881 163.555 162.196 163.208C162.516 162.856 162.759 162.429 162.924 161.928C163.095 161.421 163.18 160.851 163.18 160.216Z" fill="white"/>
<path d="M2 56C2 54.8954 2.89543 54 4 54H85.5205C86.216 54 86.8617 54.3614 87.2253 54.9543L93.3587 64.9543C93.7522 65.5959 93.7522 66.4041 93.3587 67.0457L87.2253 77.0457C86.8617 77.6386 86.216 78 85.5205 78H4C2.89544 78 2 77.1046 2 76V56Z" fill="#009B6C"/>
<path d="M15.55 67.724L14.494 64.838C14.442 64.71 14.388 64.558 14.332 64.382C14.276 64.206 14.22 64.016 14.164 63.812C14.112 64.016 14.058 64.208 14.002 64.388C13.946 64.564 13.892 64.718 13.84 64.85L12.79 67.724H15.55ZM18.4 71H17.152C17.012 71 16.898 70.966 16.81 70.898C16.722 70.826 16.656 70.738 16.612 70.634L15.964 68.864H12.37L11.722 70.634C11.69 70.726 11.628 70.81 11.536 70.886C11.444 70.962 11.33 71 11.194 71H9.934L13.348 62.324H14.992L18.4 71Z" fill="white"/>
<path d="M2 86C2 84.8954 2.89543 84 4 84H114.545C115.242 84 115.888 84.3626 116.252 84.9571L122.363 94.9571C122.754 95.5973 122.754 96.4027 122.363 97.0429L116.252 107.043C115.888 107.637 115.242 108 114.545 108H4C2.89543 108 2 107.105 2 106V86Z" fill="#51B054"/>
<path d="M14.212 99.74C14.512 99.74 14.764 99.704 14.968 99.632C15.172 99.56 15.334 99.464 15.454 99.344C15.578 99.224 15.666 99.084 15.718 98.924C15.774 98.764 15.802 98.594 15.802 98.414C15.802 98.226 15.772 98.058 15.712 97.91C15.652 97.758 15.558 97.63 15.43 97.526C15.302 97.418 15.136 97.336 14.932 97.28C14.732 97.224 14.49 97.196 14.206 97.196H12.58V99.74H14.212ZM12.58 93.572V96.08H13.864C14.416 96.08 14.832 95.98 15.112 95.78C15.396 95.58 15.538 95.262 15.538 94.826C15.538 94.374 15.41 94.052 15.154 93.86C14.898 93.668 14.498 93.572 13.954 93.572H12.58ZM13.954 92.324C14.522 92.324 15.008 92.378 15.412 92.486C15.816 92.594 16.146 92.748 16.402 92.948C16.662 93.148 16.852 93.39 16.972 93.674C17.092 93.958 17.152 94.278 17.152 94.634C17.152 94.838 17.122 95.034 17.062 95.222C17.002 95.406 16.908 95.58 16.78 95.744C16.656 95.904 16.496 96.05 16.3 96.182C16.108 96.314 15.878 96.426 15.61 96.518C16.802 96.786 17.398 97.43 17.398 98.45C17.398 98.818 17.328 99.158 17.188 99.47C17.048 99.782 16.844 100.052 16.576 100.28C16.308 100.504 15.978 100.68 15.586 100.808C15.194 100.936 14.746 101 14.242 101H10.966V92.324H13.954Z" fill="white"/>
<path d="M2 116C2 114.895 2.89543 114 4 114H144.515C145.21 114 145.856 114.361 146.22 114.954L152.358 124.954C152.752 125.596 152.752 126.404 152.358 127.046L146.22 137.046C145.856 137.639 145.21 138 144.515 138H4C2.89543 138 2 137.105 2 136V116Z" fill="#77BF76"/>
<path d="M16.924 128.954C17.012 128.954 17.09 128.988 17.158 129.056L17.794 129.746C17.442 130.182 17.008 130.516 16.492 130.748C15.98 130.98 15.364 131.096 14.644 131.096C14 131.096 13.42 130.986 12.904 130.766C12.392 130.546 11.954 130.24 11.59 129.848C11.226 129.456 10.946 128.988 10.75 128.444C10.558 127.9 10.462 127.306 10.462 126.662C10.462 126.01 10.566 125.414 10.774 124.874C10.982 124.33 11.274 123.862 11.65 123.47C12.03 123.078 12.482 122.774 13.006 122.558C13.53 122.338 14.11 122.228 14.746 122.228C15.378 122.228 15.938 122.332 16.426 122.54C16.918 122.748 17.336 123.02 17.68 123.356L17.14 124.106C17.108 124.154 17.066 124.196 17.014 124.232C16.966 124.268 16.898 124.286 16.81 124.286C16.75 124.286 16.688 124.27 16.624 124.238C16.56 124.202 16.49 124.16 16.414 124.112C16.338 124.06 16.25 124.004 16.15 123.944C16.05 123.884 15.934 123.83 15.802 123.782C15.67 123.73 15.516 123.688 15.34 123.656C15.168 123.62 14.968 123.602 14.74 123.602C14.352 123.602 13.996 123.672 13.672 123.812C13.352 123.948 13.076 124.148 12.844 124.412C12.612 124.672 12.432 124.992 12.304 125.372C12.176 125.748 12.112 126.178 12.112 126.662C12.112 127.15 12.18 127.584 12.316 127.964C12.456 128.344 12.644 128.664 12.88 128.924C13.116 129.184 13.394 129.384 13.714 129.524C14.034 129.66 14.378 129.728 14.746 129.728C14.966 129.728 15.164 129.716 15.34 129.692C15.52 129.668 15.684 129.63 15.832 129.578C15.984 129.526 16.126 129.46 16.258 129.38C16.394 129.296 16.528 129.194 16.66 129.074C16.7 129.038 16.742 129.01 16.786 128.99C16.83 128.966 16.876 128.954 16.924 128.954Z" fill="white"/>
<path d="M2 146C2 144.895 2.89543 144 4 144H176.545C177.242 144 177.888 144.363 178.252 144.957L184.363 154.957C184.754 155.597 184.754 156.403 184.363 157.043L178.252 167.043C177.888 167.637 177.242 168 176.545 168H4C2.89543 168 2 167.105 2 166V146Z" fill="#FFCD29"/>
<path d="M18.67 156.662C18.67 157.298 18.564 157.882 18.352 158.414C18.14 158.946 17.842 159.404 17.458 159.788C17.074 160.172 16.612 160.47 16.072 160.682C15.532 160.894 14.932 161 14.272 161H10.966V152.324H14.272C14.932 152.324 15.532 152.432 16.072 152.648C16.612 152.86 17.074 153.158 17.458 153.542C17.842 153.922 18.14 154.378 18.352 154.91C18.564 155.442 18.67 156.026 18.67 156.662ZM17.014 156.662C17.014 156.186 16.95 155.76 16.822 155.384C16.698 155.004 16.516 154.684 16.276 154.424C16.04 154.16 15.752 153.958 15.412 153.818C15.076 153.678 14.696 153.608 14.272 153.608H12.586V159.716H14.272C14.696 159.716 15.076 159.646 15.412 159.506C15.752 159.366 16.04 159.166 16.276 158.906C16.516 158.642 16.698 158.322 16.822 157.946C16.95 157.566 17.014 157.138 17.014 156.662Z" fill="white"/>
<path d="M2 176C2 174.895 2.89543 174 4 174H202.545C203.242 174 203.888 174.363 204.252 174.957L210.363 184.957C210.754 185.597 210.754 186.403 210.363 187.043L204.252 197.043C203.888 197.637 203.242 198 202.545 198H4C2.89544 198 2 197.105 2 196V176Z" fill="#F0B418"/>
<path d="M13.586 183.608V186.014H16.622V187.256H13.586V189.71H17.438V191H11.966V182.324H17.438V183.608H13.586Z" fill="white"/>
<path d="M4 203C2.34315 203 1 204.343 1 206V234C1 235.657 2.34316 237 4.00001 237H228.457C229.576 237 230.601 236.378 231.118 235.385L238.406 221.385C238.858 220.517 238.858 219.483 238.406 218.615L231.118 204.615C230.601 203.622 229.576 203 228.457 203H4Z" fill="#EC8234" stroke="#113B3C" stroke-width="2"/>
<path d="M13.7891 217.608V220.176H17.0411V221.466H13.7891V225H12.1691V216.324H17.6411V217.608H13.7891Z" fill="white"/>
<path d="M2 244C2 242.895 2.89543 242 4 242H261.537C262.233 242 262.879 242.362 263.243 242.956L269.361 252.956C269.753 253.597 269.753 254.403 269.361 255.044L263.243 265.044C262.879 265.638 262.233 266 261.537 266H4C2.89543 266 2 265.105 2 264V244Z" fill="#D71D20"/>
<path d="M18.118 254.65V258.16C17.678 258.484 17.208 258.722 16.708 258.874C16.212 259.022 15.68 259.096 15.112 259.096C14.404 259.096 13.762 258.986 13.186 258.766C12.614 258.546 12.124 258.24 11.716 257.848C11.312 257.456 11 256.988 10.78 256.444C10.56 255.9 10.45 255.306 10.45 254.662C10.45 254.01 10.556 253.412 10.768 252.868C10.98 252.324 11.28 251.856 11.668 251.464C12.06 251.072 12.534 250.768 13.09 250.552C13.646 250.336 14.27 250.228 14.962 250.228C15.314 250.228 15.642 250.256 15.946 250.312C16.254 250.368 16.538 250.446 16.798 250.546C17.062 250.642 17.302 250.76 17.518 250.9C17.734 251.04 17.932 251.194 18.112 251.362L17.65 252.094C17.578 252.21 17.484 252.282 17.368 252.31C17.252 252.334 17.126 252.304 16.99 252.22C16.858 252.144 16.726 252.068 16.594 251.992C16.462 251.916 16.314 251.85 16.15 251.794C15.99 251.738 15.808 251.692 15.604 251.656C15.404 251.62 15.172 251.602 14.908 251.602C14.48 251.602 14.092 251.674 13.744 251.818C13.4 251.962 13.106 252.168 12.862 252.436C12.618 252.704 12.43 253.026 12.298 253.402C12.166 253.778 12.1 254.198 12.1 254.662C12.1 255.158 12.17 255.602 12.31 255.994C12.454 256.382 12.654 256.712 12.91 256.984C13.17 257.252 13.482 257.458 13.846 257.602C14.21 257.742 14.616 257.812 15.064 257.812C15.384 257.812 15.67 257.778 15.922 257.71C16.174 257.642 16.42 257.55 16.66 257.434V255.862H15.568C15.464 255.862 15.382 255.834 15.322 255.778C15.266 255.718 15.238 255.646 15.238 255.562V254.65H18.118Z" fill="white"/>
</svg>
